<?xml version="1.0" standalone="no"?>
<!DOCTYPE svg PUBLIC "-//W3C//DTD SVG 20010904//EN"
 "http://www.w3.org/TR/2001/REC-SVG-20010904/DTD/svg10.dtd">
<svg version="1.0" xmlns="http://www.w3.org/2000/svg"
 width="700.000000pt" height="700.000000pt" viewBox="0 0 700.000000 700.000000"
 preserveAspectRatio="xMidYMid meet">
<metadata>
Created by potrace 1.14, written by Peter Selinger 2001-2017
</metadata>
<g transform="translate(0.000000,700.000000) scale(0.100000,-0.100000)"
fill="#000000" stroke="none">
<path d="M550 6993 c-259 -44 -463 -230 -530 -485 -18 -71 -19 -142 -17 -3028
l2 -2955 31 -85 c69 -193 211 -337 397 -401 43 -15 81 -30 84 -33 4 -3 1392
-6 3086 -6 l3079 0 35 37 c37 41 124 169 205 303 20 33 57 133 66 178 4 21 7
1369 7 2997 l0 2960 -31 85 c-70 197 -211 337 -410 407 l-79 28 -2950 1
c-1622 1 -2961 -1 -2975 -3z"/>
</g>
</svg>
